<svg xmlns="http://www.w3.org/2000/svg" width="142" height="33" fill="#fff" xmlns:v="https://vecta.io/nano"><path d="M0 6.737v25.871h3.758V13.875h.243l7.721 18.696h3.119l7.721-18.683h.243v18.721h3.758V6.737h-4.794l-8.335 20.111h-.307L4.794 6.737H0zM41.131 33c4.282 0 7.312-2.084 8.182-5.242l-3.618-.644c-.69 1.832-2.352 2.767-4.525 2.767-3.273 0-5.471-2.097-5.574-5.836h13.96v-1.339c0-7.011-4.244-9.752-8.693-9.752-5.471 0-9.076 4.118-9.076 10.081 0 6.026 3.554 9.967 9.345 9.967zm-5.523-11.786c.153-2.754 2.173-5.141 5.28-5.141 2.966 0 4.909 2.173 4.922 5.141H35.609zm32.903-3.272c-.793-3.019-3.183-4.99-7.427-4.99-4.436 0-7.581 2.312-7.581 5.748 0 2.754 1.687 4.586 5.369 5.394l3.324.72c1.892.417 2.774 1.251 2.774 2.463 0 1.503-1.623 2.678-4.129 2.678-2.288 0-3.758-.973-4.219-2.88l-3.694.556C53.567 31.067 56.456 33 60.866 33c4.743 0 8.028-2.489 8.028-6 0-2.741-1.764-4.434-5.369-5.255l-3.119-.707c-2.16-.505-3.094-1.225-3.081-2.539-.013-1.491 1.624-2.552 3.797-2.552 2.378 0 3.477 1.301 3.925 2.602l3.464-.606zm13.752-4.737h-4.027V8.556h-3.822v4.649h-2.876v3.032h2.876v11.458c-.013 3.524 2.71 5.23 5.727 5.167 1.214-.013 2.033-.24 2.48-.404l-.69-3.12c-.256.05-.729.164-1.342.164-1.24 0-2.352-.404-2.352-2.59V16.237h4.027v-3.032zM94.551 33c5.535 0 9.153-4.004 9.153-10.005 0-6.038-3.618-10.043-9.153-10.043s-9.153 4.005-9.153 10.043c0 6 3.618 10.005 9.153 10.005zm.013-3.171c-3.618 0-5.305-3.12-5.305-6.847 0-3.714 1.687-6.872 5.305-6.872 3.592 0 5.28 3.158 5.28 6.872 0 3.727-1.687 6.847-5.28 6.847zm12.612-20.936h1.057V5.525h1.909l.222-.004 1.841 3.373h1.227l-1.973-3.562c1.112-.375 1.632-1.272 1.632-2.417 0-1.524-.92-2.644-2.966-2.644h-2.949v8.624zm1.057-4.312V1.196h1.858c1.415 0 1.96.682 1.96 1.718s-.545 1.667-1.943 1.667h-1.875zm10.607 1.668c0 1.213-.937 1.769-1.687 1.769-.835 0-1.432-.606-1.432-1.55V2.425h-1.005v4.11c0 1.651.886 2.442 2.113 2.442.989 0 1.636-.522 1.943-1.179h.068v1.095h1.006V2.425h-1.006v3.823zm7.484-2.375c-.315-.918-1.023-1.533-2.318-1.533-1.381 0-2.403.775-2.403 1.87 0 .893.537 1.491 1.738 1.769l1.091.253c.661.152.972.463.972.91 0 .556-.597 1.011-1.534 1.011-.823 0-1.338-.35-1.517-1.044l-.955.236c.235 1.099 1.151 1.684 2.489 1.684 1.521 0 2.556-.821 2.556-1.937 0-.901-.571-1.47-1.738-1.752l-.972-.236c-.775-.189-1.125-.446-1.125-.943 0-.556.597-.96 1.398-.96.878 0 1.24.48 1.415.926l.903-.253zm6.269 0c-.315-.918-1.022-1.533-2.318-1.533-1.38 0-2.403.775-2.403 1.87 0 .893.537 1.491 1.739 1.769l1.09.253c.661.152.972.463.972.91 0 .556-.597 1.011-1.534 1.011-.822 0-1.338-.35-1.517-1.044l-.955.236c.235 1.099 1.151 1.684 2.489 1.684 1.521 0 2.557-.821 2.557-1.937 0-.901-.571-1.47-1.739-1.752l-.971-.236c-.776-.189-1.125-.446-1.125-.943 0-.556.596-.96 1.397-.96.878 0 1.24.48 1.415.926l.903-.253zm1.634 5.019h1.005V2.425h-1.005v6.468zm.511-7.546c.392 0 .716-.303.716-.674S135.13 0 134.738 0s-.716.303-.716.674.324.674.716.674zM139 9.045c1.142 0 1.739-.606 1.943-1.027h.051v.876H142V4.632c0-2.055-1.585-2.291-2.42-2.291-.989 0-2.114.337-2.625 1.516l.954.337c.222-.472.746-.977 1.705-.977.924 0 1.38.484 1.38 1.314v.034c0 .48-.494.438-1.687.59-1.215.156-2.54.421-2.54 1.903 0 1.263.989 1.988 2.233 1.988zm.154-.893c-.802 0-1.381-.354-1.381-1.044 0-.758.699-.994 1.483-1.095.426-.051 1.568-.168 1.738-.371v.91c0 .808-.647 1.6-1.84 1.6z"/></svg>